<svg width="54" height="45" viewBox="0 0 54 45" fill="none" xmlns="http://www.w3.org/2000/svg">
<path d="M25.8286 2.08023C27.4528 1.85361 29.143 2.10856 30.6161 2.82622C32.5802 3.76106 34.1477 5.48909 34.8843 7.53818C35.8191 10.0689 35.4131 13.0622 33.8172 15.2435C32.4008 17.2737 30.0307 18.6052 27.5566 18.7468C25.0921 18.9357 22.5803 17.9347 20.8995 16.1312C19.8041 14.9791 19.0487 13.506 18.7654 11.9385C18.3688 9.91778 18.7654 7.75537 19.8513 6.00845C21.1355 3.89326 23.3829 2.40129 25.8286 2.08023Z" fill="white"/>
<path d="M11.4377 9.87058C12.8447 9.68173 14.3178 9.99334 15.5359 10.7393C16.6974 11.4475 17.6133 12.5429 18.1138 13.8177C18.6426 15.168 18.6804 16.6977 18.2177 18.067C17.585 20.0027 15.942 21.5702 13.9779 22.1274C12.4953 22.5523 10.8523 22.4012 9.47364 21.7119C8.12331 21.0414 7.03739 19.8705 6.47082 18.4824C5.92313 17.1699 5.84759 15.659 6.26308 14.2993C6.92407 11.9669 9.03927 10.1539 11.4377 9.87058Z" fill="#B756FE"/>
<path d="M40.9848 9.8611C42.3446 9.70058 43.761 9.98386 44.9414 10.6921C46.1311 11.4003 47.0849 12.5145 47.5853 13.8082C48.1614 15.2718 48.1614 16.9527 47.5665 18.4069C47.0093 19.8327 45.9045 21.0225 44.5353 21.7024C43.5344 22.2123 42.3823 22.4201 41.2681 22.3445C39.2851 22.2123 37.4154 21.0414 36.3956 19.3417C35.0547 17.2454 35.1964 14.3464 36.6978 12.3729C37.6987 10.9848 39.2851 10.0594 40.9848 9.8611Z" fill="#B756FE"/>
<path d="M22.0038 20.5315C22.6553 20.4749 23.3163 20.4937 23.9679 20.4937C26.3947 20.4937 28.8121 20.4937 31.2389 20.4937C32.9197 20.4843 34.5911 21.1075 35.8564 22.2218C37.0462 23.2605 37.8772 24.7052 38.1321 26.2633C38.2738 27.0093 38.236 27.7742 38.2454 28.539C38.2454 32.8827 38.2454 37.217 38.2454 41.5607C38.2643 42.0989 37.9433 42.6372 37.4428 42.8638C37.1029 43.0338 36.7063 42.996 36.338 43.0054C29.9452 43.0054 23.5619 43.0054 17.1691 43.0054C16.3948 43.0432 15.696 42.3444 15.7432 41.5701C15.7432 36.8865 15.7432 32.1934 15.7432 27.5098C15.7432 25.9895 16.2437 24.4692 17.1691 23.2605C18.3211 21.7308 20.1152 20.7204 22.0038 20.5315Z" fill="white"/>
<path d="M5.09217 25.98C6.31974 24.8374 7.96279 24.1764 9.63417 24.1387C10.9373 24.1198 12.2404 24.1292 13.5435 24.1292C13.128 25.3001 12.9392 26.5371 12.9486 27.7836C12.9486 31.9101 12.9486 36.0272 12.9486 40.1537C12.958 41.1074 12.8731 42.08 13.1847 42.996C11.5511 42.996 9.9269 42.996 8.29329 42.996C7.60397 42.9865 6.91464 43.0243 6.22531 42.911C5.44156 42.7599 4.71446 42.3916 4.12901 41.844C3.32637 41.0885 2.87311 39.9932 2.8259 38.8789V30.9375C2.88255 29.0678 3.70408 27.2359 5.09217 25.98Z" fill="#B756FE"/>
<path d="M40.4555 24.1293C41.6076 24.1198 42.7596 24.1293 43.9022 24.1293C44.6009 24.1293 45.3091 24.1859 45.9796 24.3653C47.4999 24.7619 48.8691 25.7062 49.8039 26.9715C50.6538 28.1141 51.1259 29.5117 51.1637 30.9375V38.8789C51.1165 39.5116 50.9937 40.1537 50.6916 40.7203C50.1061 41.8723 48.9541 42.7222 47.6793 42.9299C47.0183 43.0338 46.3573 42.996 45.6869 43.0055C44.0533 43.0055 42.4291 43.0055 40.7955 43.0055C40.956 42.4861 41.041 41.9384 41.0315 41.3907C41.0315 36.7921 41.0315 32.1934 41.0315 27.6042C41.0504 26.4144 40.8427 25.2435 40.4555 24.1293Z" fill="#B756FE"/>
</svg>
